<?xml version="1.0" ?><!DOCTYPE svg  PUBLIC '-//W3C//DTD SVG 1.1//EN'  'http://www.w3.org/Graphics/SVG/1.1/DTD/svg11.dtd'><svg enable-background="new 0 0 512 512" height="512px" id="Layer_1" version="1.1" viewBox="0 0 512 512" width="512px" xml:space="preserve" xmlns="http://www.w3.org/2000/svg" xmlns:xlink="http://www.w3.org/1999/xlink"><g><polygon clip-rule="evenodd" fill="#2A85BB" fill-rule="evenodd" points="0,0 435.207,0 512,76.793 512,512 76.793,512 0,435.207     "/><polygon clip-rule="evenodd" fill="#48A0D2" fill-rule="evenodd" points="435.207,0 512,76.793 435.207,76.793  "/><polygon clip-rule="evenodd" fill="#166291" fill-rule="evenodd" points="435.207,76.793 512,153.584 512,76.793  "/><polygon clip-rule="evenodd" fill="#48A0D2" fill-rule="evenodd" points="76.793,512 0,435.207 76.793,435.207  "/><polygon clip-rule="evenodd" fill="#166291" fill-rule="evenodd" points="153.588,512 76.793,435.207 76.793,512  "/><path d="M145.572,85.256c9.979,0,18.441,3.629,25.547,10.885c7.258,7.254,10.885,15.875,10.885,26.15   c0,10.129-3.627,18.744-10.732,25.85c-6.953,7.107-15.418,10.582-25.396,10.582c-10.127,0-18.744-3.627-25.85-10.885   c-7.104-7.254-10.73-16.023-10.73-26.451c0-9.977,3.627-18.443,10.58-25.396C126.98,88.885,135.447,85.256,145.572,85.256   L145.572,85.256z M117.004,178.375h56.84v226.898h-56.84V178.375z M201.506,178.375h56.836v23.428   c12.854-10.881,24.643-18.289,35.072-22.52c10.43-4.234,21.164-6.352,32.195-6.352c22.523,0,41.574,7.709,57.293,23.432   c13.148,13.455,19.801,33.107,19.801,59.258v149.652H346.32v-99.164c0-27.059-1.207-45.047-3.625-53.811   c-2.422-8.924-6.805-15.725-12.699-20.26c-6.047-4.688-13.602-7.105-22.371-7.105c-11.492,0-21.465,3.932-29.633,11.641   c-8.313,7.709-14.055,18.291-17.23,31.895c-1.666,7.105-2.42,22.371-2.42,45.957v90.848h-56.836V178.375z" fill="#FFFFFF"/><path clip-rule="evenodd" d="M258.342,183.213v18.59c4.533-3.775,8.92-7.252,13.154-10.123   l-13.154-13.305V183.213z M201.506,178.375h52l-82.387-82.234c7.258,7.254,10.885,15.875,10.885,26.15   c0,10.129-3.627,18.744-10.732,25.85c-6.953,7.107-15.418,10.582-25.396,10.582c-9.824,0-18.139-3.324-25.244-10.279l29.932,29.932   h23.281v226.898h-56.84L223.727,512H512V325.461L382.902,196.363c13.148,13.455,19.801,33.107,19.801,59.258v149.652H346.32   v-99.164c0-27.059-1.207-45.047-3.625-53.811c-2.422-8.924-6.805-15.725-12.699-20.26c-6.047-4.688-13.602-7.105-22.371-7.105   l-2.723,0.15c-10.43,0.605-19.348,4.387-26.91,11.49c-8.313,7.709-14.055,18.291-17.23,31.895   c-1.666,7.105-2.42,22.371-2.42,45.957v90.848h-56.836V178.375z" fill="#166291" fill-rule="evenodd"/></g></svg>